<?xml version="1.0" encoding="UTF-8"?>
<svg xmlns="http://www.w3.org/2000/svg" xmlns:xlink="http://www.w3.org/1999/xlink" width="600pt" height="600pt" viewBox="0 0 600 600" version="1.1">
<g id="surface2">
<rect x="0" y="0" width="600" height="600" style="fill:rgb(100%,100%,100%);fill-opacity:1;stroke:none;"/>
<path style="fill:none;stroke-width:1;stroke-linecap:butt;stroke-linejoin:miter;stroke:rgb(26.666667%,26.666667%,26.666667%);stroke-opacity:1;stroke-miterlimit:10;" d="M 268.230469 380.097656 L 167.335938 348.019531 "/>
<path style="fill:none;stroke-width:1;stroke-linecap:butt;stroke-linejoin:miter;stroke:rgb(26.666667%,26.666667%,26.666667%);stroke-opacity:1;stroke-miterlimit:10;" d="M 268.230469 380.097656 L 306.320312 270.511719 "/>
<path style="fill:none;stroke-width:1;stroke-linecap:butt;stroke-linejoin:miter;stroke:rgb(26.666667%,26.666667%,26.666667%);stroke-opacity:1;stroke-miterlimit:10;" d="M 268.230469 380.097656 L 308.566406 354.402344 "/>
<path style="fill:none;stroke-width:1;stroke-linecap:butt;stroke-linejoin:miter;stroke:rgb(26.666667%,26.666667%,26.666667%);stroke-opacity:1;stroke-miterlimit:10;" d="M 268.230469 380.097656 L 493.160156 411.03125 "/>
<path style="fill:none;stroke-width:1;stroke-linecap:butt;stroke-linejoin:miter;stroke:rgb(26.666667%,26.666667%,26.666667%);stroke-opacity:1;stroke-miterlimit:10;" d="M 268.230469 380.097656 L 319.808594 497.722656 "/>
<path style="fill:none;stroke-width:1;stroke-linecap:butt;stroke-linejoin:miter;stroke:rgb(26.666667%,26.666667%,26.666667%);stroke-opacity:1;stroke-miterlimit:10;" d="M 268.230469 380.097656 L 416.507812 475.582031 "/>
<path style="fill:none;stroke-width:1;stroke-linecap:butt;stroke-linejoin:miter;stroke:rgb(26.666667%,26.666667%,26.666667%);stroke-opacity:1;stroke-miterlimit:10;" d="M 268.230469 380.097656 L 397.824219 345.308594 "/>
<path style="fill:none;stroke-width:1;stroke-linecap:butt;stroke-linejoin:miter;stroke:rgb(26.666667%,26.666667%,26.666667%);stroke-opacity:1;stroke-miterlimit:10;" d="M 268.230469 380.097656 L 179.042969 260.460938 "/>
<path style="fill:none;stroke-width:1;stroke-linecap:butt;stroke-linejoin:miter;stroke:rgb(26.666667%,26.666667%,26.666667%);stroke-opacity:1;stroke-miterlimit:10;" d="M 268.230469 380.097656 L 410.246094 442.605469 "/>
<path style="fill:none;stroke-width:1;stroke-linecap:butt;stroke-linejoin:miter;stroke:rgb(26.666667%,26.666667%,26.666667%);stroke-opacity:1;stroke-miterlimit:10;" d="M 268.230469 380.097656 L 152.441406 482.90625 "/>
<path style="fill:none;stroke-width:1;stroke-linecap:butt;stroke-linejoin:miter;stroke:rgb(26.666667%,26.666667%,26.666667%);stroke-opacity:1;stroke-miterlimit:10;" d="M 268.230469 380.097656 L 237.773438 466.710938 "/>
<path style="fill:none;stroke-width:1;stroke-linecap:butt;stroke-linejoin:miter;stroke:rgb(26.666667%,26.666667%,26.666667%);stroke-opacity:1;stroke-miterlimit:10;" d="M 268.230469 380.097656 L 218.425781 284.207031 "/>
<path style="fill:none;stroke-width:1;stroke-linecap:butt;stroke-linejoin:miter;stroke:rgb(26.666667%,26.666667%,26.666667%);stroke-opacity:1;stroke-miterlimit:10;" d="M 268.230469 380.097656 L 55.617188 407.023438 "/>
<path style="fill:none;stroke-width:1;stroke-linecap:butt;stroke-linejoin:miter;stroke:rgb(26.666667%,26.666667%,26.666667%);stroke-opacity:1;stroke-miterlimit:10;" d="M 268.230469 380.097656 L 122.039062 284.058594 "/>
<path style="fill:none;stroke-width:1;stroke-linecap:butt;stroke-linejoin:miter;stroke:rgb(26.666667%,26.666667%,26.666667%);stroke-opacity:1;stroke-miterlimit:10;" d="M 268.230469 380.097656 L 101.613281 436.167969 "/>
<path style="fill:none;stroke-width:1;stroke-linecap:butt;stroke-linejoin:miter;stroke:rgb(26.666667%,26.666667%,26.666667%);stroke-opacity:1;stroke-miterlimit:10;" d="M 268.230469 380.097656 L 377.347656 251.425781 "/>
<path style="fill:none;stroke-width:1;stroke-linecap:butt;stroke-linejoin:miter;stroke:rgb(26.666667%,26.666667%,26.666667%);stroke-opacity:1;stroke-miterlimit:10;" d="M 167.335938 348.019531 L 306.320312 270.511719 "/>
<path style="fill:none;stroke-width:1;stroke-linecap:butt;stroke-linejoin:miter;stroke:rgb(26.666667%,26.666667%,26.666667%);stroke-opacity:1;stroke-miterlimit:10;" d="M 167.335938 348.019531 L 308.566406 354.402344 "/>
<path style="fill:none;stroke-width:1;stroke-linecap:butt;stroke-linejoin:miter;stroke:rgb(26.666667%,26.666667%,26.666667%);stroke-opacity:1;stroke-miterlimit:10;" d="M 167.335938 348.019531 L 397.824219 345.308594 "/>
<path style="fill:none;stroke-width:1;stroke-linecap:butt;stroke-linejoin:miter;stroke:rgb(26.666667%,26.666667%,26.666667%);stroke-opacity:1;stroke-miterlimit:10;" d="M 167.335938 348.019531 L 218.425781 284.207031 "/>
<path style="fill:none;stroke-width:1;stroke-linecap:butt;stroke-linejoin:miter;stroke:rgb(26.666667%,26.666667%,26.666667%);stroke-opacity:1;stroke-miterlimit:10;" d="M 167.335938 348.019531 L 55.617188 407.023438 "/>
<path style="fill:none;stroke-width:1;stroke-linecap:butt;stroke-linejoin:miter;stroke:rgb(26.666667%,26.666667%,26.666667%);stroke-opacity:1;stroke-miterlimit:10;" d="M 167.335938 348.019531 L 122.039062 284.058594 "/>
<path style="fill:none;stroke-width:1;stroke-linecap:butt;stroke-linejoin:miter;stroke:rgb(26.666667%,26.666667%,26.666667%);stroke-opacity:1;stroke-miterlimit:10;" d="M 167.335938 348.019531 L 101.613281 436.167969 "/>
<path style="fill:none;stroke-width:1;stroke-linecap:butt;stroke-linejoin:miter;stroke:rgb(26.666667%,26.666667%,26.666667%);stroke-opacity:1;stroke-miterlimit:10;" d="M 167.335938 348.019531 L 70.6875 230.242188 "/>
<path style="fill:none;stroke-width:1;stroke-linecap:butt;stroke-linejoin:miter;stroke:rgb(26.666667%,26.666667%,26.666667%);stroke-opacity:1;stroke-miterlimit:10;" d="M 306.320312 270.511719 L 308.566406 354.402344 "/>
<path style="fill:none;stroke-width:1;stroke-linecap:butt;stroke-linejoin:miter;stroke:rgb(26.666667%,26.666667%,26.666667%);stroke-opacity:1;stroke-miterlimit:10;" d="M 306.320312 270.511719 L 397.824219 345.308594 "/>
<path style="fill:none;stroke-width:1;stroke-linecap:butt;stroke-linejoin:miter;stroke:rgb(26.666667%,26.666667%,26.666667%);stroke-opacity:1;stroke-miterlimit:10;" d="M 306.320312 270.511719 L 429.652344 182.375 "/>
<path style="fill:none;stroke-width:1;stroke-linecap:butt;stroke-linejoin:miter;stroke:rgb(26.666667%,26.666667%,26.666667%);stroke-opacity:1;stroke-miterlimit:10;" d="M 306.320312 270.511719 L 377.972656 179.261719 "/>
<path style="fill:none;stroke-width:1;stroke-linecap:butt;stroke-linejoin:miter;stroke:rgb(26.666667%,26.666667%,26.666667%);stroke-opacity:1;stroke-miterlimit:10;" d="M 306.320312 270.511719 L 191.828125 162.417969 "/>
<path style="fill:none;stroke-width:1;stroke-linecap:butt;stroke-linejoin:miter;stroke:rgb(26.666667%,26.666667%,26.666667%);stroke-opacity:1;stroke-miterlimit:10;" d="M 306.320312 270.511719 L 317.925781 177.183594 "/>
<path style="fill:none;stroke-width:1;stroke-linecap:butt;stroke-linejoin:miter;stroke:rgb(26.666667%,26.666667%,26.666667%);stroke-opacity:1;stroke-miterlimit:10;" d="M 306.320312 270.511719 L 179.042969 260.460938 "/>
<path style="fill:none;stroke-width:1;stroke-linecap:butt;stroke-linejoin:miter;stroke:rgb(26.666667%,26.666667%,26.666667%);stroke-opacity:1;stroke-miterlimit:10;" d="M 306.320312 270.511719 L 218.425781 284.207031 "/>
<path style="fill:none;stroke-width:1;stroke-linecap:butt;stroke-linejoin:miter;stroke:rgb(26.666667%,26.666667%,26.666667%);stroke-opacity:1;stroke-miterlimit:10;" d="M 308.566406 354.402344 L 397.824219 345.308594 "/>
<path style="fill:none;stroke-width:1;stroke-linecap:butt;stroke-linejoin:miter;stroke:rgb(26.666667%,26.666667%,26.666667%);stroke-opacity:1;stroke-miterlimit:10;" d="M 308.566406 354.402344 L 237.773438 466.710938 "/>
<path style="fill:none;stroke-width:1;stroke-linecap:butt;stroke-linejoin:miter;stroke:rgb(26.666667%,26.666667%,26.666667%);stroke-opacity:1;stroke-miterlimit:10;" d="M 308.566406 354.402344 L 218.425781 284.207031 "/>
<path style="fill:none;stroke-width:1;stroke-linecap:butt;stroke-linejoin:miter;stroke:rgb(26.666667%,26.666667%,26.666667%);stroke-opacity:1;stroke-miterlimit:10;" d="M 493.160156 411.03125 L 416.507812 475.582031 "/>
<path style="fill:none;stroke-width:1;stroke-linecap:butt;stroke-linejoin:miter;stroke:rgb(26.666667%,26.666667%,26.666667%);stroke-opacity:1;stroke-miterlimit:10;" d="M 493.160156 411.03125 L 410.246094 442.605469 "/>
<path style="fill:none;stroke-width:1;stroke-linecap:butt;stroke-linejoin:miter;stroke:rgb(26.666667%,26.666667%,26.666667%);stroke-opacity:1;stroke-miterlimit:10;" d="M 319.808594 497.722656 L 416.507812 475.582031 "/>
<path style="fill:none;stroke-width:1;stroke-linecap:butt;stroke-linejoin:miter;stroke:rgb(26.666667%,26.666667%,26.666667%);stroke-opacity:1;stroke-miterlimit:10;" d="M 319.808594 497.722656 L 410.246094 442.605469 "/>
<path style="fill:none;stroke-width:1;stroke-linecap:butt;stroke-linejoin:miter;stroke:rgb(26.666667%,26.666667%,26.666667%);stroke-opacity:1;stroke-miterlimit:10;" d="M 319.808594 497.722656 L 446.78125 580 "/>
<path style="fill:none;stroke-width:1;stroke-linecap:butt;stroke-linejoin:miter;stroke:rgb(26.666667%,26.666667%,26.666667%);stroke-opacity:1;stroke-miterlimit:10;" d="M 416.507812 475.582031 L 446.78125 580 "/>
<path style="fill:none;stroke-width:1;stroke-linecap:butt;stroke-linejoin:miter;stroke:rgb(26.666667%,26.666667%,26.666667%);stroke-opacity:1;stroke-miterlimit:10;" d="M 179.042969 260.460938 L 70.6875 230.242188 "/>
<path style="fill:none;stroke-width:1;stroke-linecap:butt;stroke-linejoin:miter;stroke:rgb(26.666667%,26.666667%,26.666667%);stroke-opacity:1;stroke-miterlimit:10;" d="M 179.042969 260.460938 L 191.828125 162.417969 "/>
<path style="fill:none;stroke-width:1;stroke-linecap:butt;stroke-linejoin:miter;stroke:rgb(26.666667%,26.666667%,26.666667%);stroke-opacity:1;stroke-miterlimit:10;" d="M 179.042969 260.460938 L 230.488281 155.40625 "/>
<path style="fill:none;stroke-width:1;stroke-linecap:butt;stroke-linejoin:miter;stroke:rgb(26.666667%,26.666667%,26.666667%);stroke-opacity:1;stroke-miterlimit:10;" d="M 317.925781 177.183594 L 230.488281 155.40625 "/>
<path style="fill:none;stroke-width:1;stroke-linecap:butt;stroke-linejoin:miter;stroke:rgb(26.666667%,26.666667%,26.666667%);stroke-opacity:1;stroke-miterlimit:10;" d="M 218.425781 284.207031 L 230.488281 155.40625 "/>
<path style="fill:none;stroke-width:1;stroke-linecap:butt;stroke-linejoin:miter;stroke:rgb(26.666667%,26.666667%,26.666667%);stroke-opacity:1;stroke-miterlimit:10;" d="M 141.683594 59.878906 L 191.828125 162.417969 "/>
<path style="fill:none;stroke-width:1;stroke-linecap:butt;stroke-linejoin:miter;stroke:rgb(26.666667%,26.666667%,26.666667%);stroke-opacity:1;stroke-miterlimit:10;" d="M 141.683594 59.878906 L 230.488281 155.40625 "/>
<path style="fill:none;stroke-width:1;stroke-linecap:butt;stroke-linejoin:miter;stroke:rgb(26.666667%,26.666667%,26.666667%);stroke-opacity:1;stroke-miterlimit:10;" d="M 43.121094 116.265625 L 191.828125 162.417969 "/>
<path style="fill:none;stroke-width:1;stroke-linecap:butt;stroke-linejoin:miter;stroke:rgb(26.666667%,26.666667%,26.666667%);stroke-opacity:1;stroke-miterlimit:10;" d="M 43.121094 116.265625 L 230.488281 155.40625 "/>
<path style="fill:none;stroke-width:1;stroke-linecap:butt;stroke-linejoin:miter;stroke:rgb(26.666667%,26.666667%,26.666667%);stroke-opacity:1;stroke-miterlimit:10;" d="M 20 153.480469 L 191.828125 162.417969 "/>
<path style="fill:none;stroke-width:1;stroke-linecap:butt;stroke-linejoin:miter;stroke:rgb(26.666667%,26.666667%,26.666667%);stroke-opacity:1;stroke-miterlimit:10;" d="M 20 153.480469 L 230.488281 155.40625 "/>
<path style="fill:none;stroke-width:1;stroke-linecap:butt;stroke-linejoin:miter;stroke:rgb(26.666667%,26.666667%,26.666667%);stroke-opacity:1;stroke-miterlimit:10;" d="M 122.039062 284.058594 L 230.488281 155.40625 "/>
<path style="fill:none;stroke-width:1;stroke-linecap:butt;stroke-linejoin:miter;stroke:rgb(26.666667%,26.666667%,26.666667%);stroke-opacity:1;stroke-miterlimit:10;" d="M 84.371094 83.664062 L 191.828125 162.417969 "/>
<path style="fill:none;stroke-width:1;stroke-linecap:butt;stroke-linejoin:miter;stroke:rgb(26.666667%,26.666667%,26.666667%);stroke-opacity:1;stroke-miterlimit:10;" d="M 84.371094 83.664062 L 230.488281 155.40625 "/>
<path style="fill:none;stroke-width:1;stroke-linecap:butt;stroke-linejoin:miter;stroke:rgb(26.666667%,26.666667%,26.666667%);stroke-opacity:1;stroke-miterlimit:10;" d="M 213.453125 54.597656 L 191.828125 162.417969 "/>
<path style="fill:none;stroke-width:1;stroke-linecap:butt;stroke-linejoin:miter;stroke:rgb(26.666667%,26.666667%,26.666667%);stroke-opacity:1;stroke-miterlimit:10;" d="M 213.453125 54.597656 L 230.488281 155.40625 "/>
<path style="fill:none;stroke-width:1;stroke-linecap:butt;stroke-linejoin:miter;stroke:rgb(26.666667%,26.666667%,26.666667%);stroke-opacity:1;stroke-miterlimit:10;" d="M 414.390625 106.9375 L 564.101562 228.558594 "/>
<path style="fill:none;stroke-width:1;stroke-linecap:butt;stroke-linejoin:miter;stroke:rgb(26.666667%,26.666667%,26.666667%);stroke-opacity:1;stroke-miterlimit:10;" d="M 414.390625 106.9375 L 429.652344 182.375 "/>
<path style="fill:none;stroke-width:1;stroke-linecap:butt;stroke-linejoin:miter;stroke:rgb(26.666667%,26.666667%,26.666667%);stroke-opacity:1;stroke-miterlimit:10;" d="M 414.390625 106.9375 L 191.828125 162.417969 "/>
<path style="fill:none;stroke-width:1;stroke-linecap:butt;stroke-linejoin:miter;stroke:rgb(26.666667%,26.666667%,26.666667%);stroke-opacity:1;stroke-miterlimit:10;" d="M 414.390625 106.9375 L 230.488281 155.40625 "/>
<path style="fill:none;stroke-width:1;stroke-linecap:butt;stroke-linejoin:miter;stroke:rgb(26.666667%,26.666667%,26.666667%);stroke-opacity:1;stroke-miterlimit:10;" d="M 414.390625 106.9375 L 331.332031 68.203125 "/>
<path style="fill:none;stroke-width:1;stroke-linecap:butt;stroke-linejoin:miter;stroke:rgb(26.666667%,26.666667%,26.666667%);stroke-opacity:1;stroke-miterlimit:10;" d="M 580 186.261719 L 564.101562 228.558594 "/>
<path style="fill:none;stroke-width:1;stroke-linecap:butt;stroke-linejoin:miter;stroke:rgb(26.666667%,26.666667%,26.666667%);stroke-opacity:1;stroke-miterlimit:10;" d="M 580 186.261719 L 429.652344 182.375 "/>
<path style="fill:none;stroke-width:1;stroke-linecap:butt;stroke-linejoin:miter;stroke:rgb(26.666667%,26.666667%,26.666667%);stroke-opacity:1;stroke-miterlimit:10;" d="M 580 186.261719 L 377.347656 251.425781 "/>
<path style="fill:none;stroke-width:1;stroke-linecap:butt;stroke-linejoin:miter;stroke:rgb(26.666667%,26.666667%,26.666667%);stroke-opacity:1;stroke-miterlimit:10;" d="M 564.101562 228.558594 L 377.347656 251.425781 "/>
<path style="fill:none;stroke-width:1;stroke-linecap:butt;stroke-linejoin:miter;stroke:rgb(26.666667%,26.666667%,26.666667%);stroke-opacity:1;stroke-miterlimit:10;" d="M 277.011719 20 L 331.332031 68.203125 "/>
<path style="fill:none;stroke-width:1;stroke-linecap:butt;stroke-linejoin:miter;stroke:rgb(26.666667%,26.666667%,26.666667%);stroke-opacity:1;stroke-miterlimit:10;" d="M 277.011719 20 L 230.488281 155.40625 "/>
<path style="fill:none;stroke-width:1;stroke-linecap:butt;stroke-linejoin:miter;stroke:rgb(26.666667%,26.666667%,26.666667%);stroke-opacity:1;stroke-miterlimit:10;" d="M 429.652344 182.375 L 230.488281 155.40625 "/>
<path style="fill:none;stroke-width:1;stroke-linecap:butt;stroke-linejoin:miter;stroke:rgb(26.666667%,26.666667%,26.666667%);stroke-opacity:1;stroke-miterlimit:10;" d="M 377.972656 179.261719 L 377.347656 251.425781 "/>
<path style="fill:none;stroke-width:1;stroke-linecap:butt;stroke-linejoin:miter;stroke:rgb(26.666667%,26.666667%,26.666667%);stroke-opacity:1;stroke-miterlimit:10;" d="M 377.972656 179.261719 L 230.488281 155.40625 "/>
<path style="fill:none;stroke-width:1;stroke-linecap:butt;stroke-linejoin:miter;stroke:rgb(26.666667%,26.666667%,26.666667%);stroke-opacity:1;stroke-miterlimit:10;" d="M 331.332031 68.203125 L 191.828125 162.417969 "/>
<path style="fill:none;stroke-width:1;stroke-linecap:butt;stroke-linejoin:miter;stroke:rgb(26.666667%,26.666667%,26.666667%);stroke-opacity:1;stroke-miterlimit:10;" d="M 331.332031 68.203125 L 230.488281 155.40625 "/>
<path style="fill:none;stroke-width:1;stroke-linecap:butt;stroke-linejoin:miter;stroke:rgb(26.666667%,26.666667%,26.666667%);stroke-opacity:1;stroke-miterlimit:10;" d="M 70.6875 230.242188 L 191.828125 162.417969 "/>
<path style="fill:none;stroke-width:1;stroke-linecap:butt;stroke-linejoin:miter;stroke:rgb(26.666667%,26.666667%,26.666667%);stroke-opacity:1;stroke-miterlimit:10;" d="M 70.6875 230.242188 L 230.488281 155.40625 "/>
<path style="fill:none;stroke-width:1;stroke-linecap:butt;stroke-linejoin:miter;stroke:rgb(26.666667%,26.666667%,26.666667%);stroke-opacity:1;stroke-miterlimit:10;" d="M 377.347656 251.425781 L 191.828125 162.417969 "/>
<path style="fill:none;stroke-width:1;stroke-linecap:butt;stroke-linejoin:miter;stroke:rgb(26.666667%,26.666667%,26.666667%);stroke-opacity:1;stroke-miterlimit:10;" d="M 377.347656 251.425781 L 230.488281 155.40625 "/>
<path style="fill:none;stroke-width:1;stroke-linecap:butt;stroke-linejoin:miter;stroke:rgb(26.666667%,26.666667%,26.666667%);stroke-opacity:1;stroke-miterlimit:10;" d="M 191.828125 162.417969 L 230.488281 155.40625 "/>
<path style="fill-rule:nonzero;fill:rgb(100%,0%,0%);fill-opacity:1;stroke-width:1;stroke-linecap:butt;stroke-linejoin:miter;stroke:rgb(0%,0%,0%);stroke-opacity:1;stroke-miterlimit:10;" d="M 278.230469 380.097656 C 278.230469 385.621094 273.753906 390.097656 268.230469 390.097656 C 262.707031 390.097656 258.230469 385.621094 258.230469 380.097656 C 258.230469 374.574219 262.707031 370.097656 268.230469 370.097656 C 273.753906 370.097656 278.230469 374.574219 278.230469 380.097656 "/>
<path style="fill-rule:nonzero;fill:rgb(100%,0%,0%);fill-opacity:1;stroke-width:1;stroke-linecap:butt;stroke-linejoin:miter;stroke:rgb(0%,0%,0%);stroke-opacity:1;stroke-miterlimit:10;" d="M 177.335938 348.019531 C 177.335938 353.542969 172.859375 358.019531 167.335938 358.019531 C 161.8125 358.019531 157.335938 353.542969 157.335938 348.019531 C 157.335938 342.496094 161.8125 338.019531 167.335938 338.019531 C 172.859375 338.019531 177.335938 342.496094 177.335938 348.019531 "/>
<path style="fill-rule:nonzero;fill:rgb(100%,0%,0%);fill-opacity:1;stroke-width:1;stroke-linecap:butt;stroke-linejoin:miter;stroke:rgb(0%,0%,0%);stroke-opacity:1;stroke-miterlimit:10;" d="M 316.320312 270.511719 C 316.320312 276.035156 311.84375 280.511719 306.320312 280.511719 C 300.796875 280.511719 296.320312 276.035156 296.320312 270.511719 C 296.320312 264.988281 300.796875 260.511719 306.320312 260.511719 C 311.84375 260.511719 316.320312 264.988281 316.320312 270.511719 "/>
<path style="fill-rule:nonzero;fill:rgb(100%,0%,0%);fill-opacity:1;stroke-width:1;stroke-linecap:butt;stroke-linejoin:miter;stroke:rgb(0%,0%,0%);stroke-opacity:1;stroke-miterlimit:10;" d="M 318.566406 354.402344 C 318.566406 359.921875 314.089844 364.402344 308.566406 364.402344 C 303.042969 364.402344 298.566406 359.921875 298.566406 354.402344 C 298.566406 348.878906 303.042969 344.402344 308.566406 344.402344 C 314.089844 344.402344 318.566406 348.878906 318.566406 354.402344 "/>
<path style="fill-rule:nonzero;fill:rgb(100%,0%,0%);fill-opacity:1;stroke-width:1;stroke-linecap:butt;stroke-linejoin:miter;stroke:rgb(0%,0%,0%);stroke-opacity:1;stroke-miterlimit:10;" d="M 503.160156 411.03125 C 503.160156 416.554688 498.683594 421.03125 493.160156 421.03125 C 487.636719 421.03125 483.160156 416.554688 483.160156 411.03125 C 483.160156 405.507812 487.636719 401.03125 493.160156 401.03125 C 498.683594 401.03125 503.160156 405.507812 503.160156 411.03125 "/>
<path style="fill-rule:nonzero;fill:rgb(100%,0%,0%);fill-opacity:1;stroke-width:1;stroke-linecap:butt;stroke-linejoin:miter;stroke:rgb(0%,0%,0%);stroke-opacity:1;stroke-miterlimit:10;" d="M 329.808594 497.722656 C 329.808594 503.246094 325.332031 507.722656 319.808594 507.722656 C 314.285156 507.722656 309.808594 503.246094 309.808594 497.722656 C 309.808594 492.199219 314.285156 487.722656 319.808594 487.722656 C 325.332031 487.722656 329.808594 492.199219 329.808594 497.722656 "/>
<path style="fill-rule:nonzero;fill:rgb(100%,0%,0%);fill-opacity:1;stroke-width:1;stroke-linecap:butt;stroke-linejoin:miter;stroke:rgb(0%,0%,0%);stroke-opacity:1;stroke-miterlimit:10;" d="M 426.507812 475.582031 C 426.507812 481.105469 422.03125 485.582031 416.507812 485.582031 C 410.984375 485.582031 406.507812 481.105469 406.507812 475.582031 C 406.507812 470.058594 410.984375 465.582031 416.507812 465.582031 C 422.03125 465.582031 426.507812 470.058594 426.507812 475.582031 "/>
<path style="fill-rule:nonzero;fill:rgb(100%,0%,0%);fill-opacity:1;stroke-width:1;stroke-linecap:butt;stroke-linejoin:miter;stroke:rgb(0%,0%,0%);stroke-opacity:1;stroke-miterlimit:10;" d="M 407.824219 345.308594 C 407.824219 350.832031 403.34375 355.308594 397.824219 355.308594 C 392.300781 355.308594 387.824219 350.832031 387.824219 345.308594 C 387.824219 339.785156 392.300781 335.308594 397.824219 335.308594 C 403.34375 335.308594 407.824219 339.785156 407.824219 345.308594 "/>
<path style="fill-rule:nonzero;fill:rgb(100%,0%,0%);fill-opacity:1;stroke-width:1;stroke-linecap:butt;stroke-linejoin:miter;stroke:rgb(0%,0%,0%);stroke-opacity:1;stroke-miterlimit:10;" d="M 189.042969 260.460938 C 189.042969 265.984375 184.566406 270.460938 179.042969 270.460938 C 173.519531 270.460938 169.042969 265.984375 169.042969 260.460938 C 169.042969 254.9375 173.519531 250.460938 179.042969 250.460938 C 184.566406 250.460938 189.042969 254.9375 189.042969 260.460938 "/>
<path style="fill-rule:nonzero;fill:rgb(100%,0%,0%);fill-opacity:1;stroke-width:1;stroke-linecap:butt;stroke-linejoin:miter;stroke:rgb(0%,0%,0%);stroke-opacity:1;stroke-miterlimit:10;" d="M 327.925781 177.183594 C 327.925781 182.707031 323.445312 187.183594 317.925781 187.183594 C 312.402344 187.183594 307.925781 182.707031 307.925781 177.183594 C 307.925781 171.660156 312.402344 167.183594 317.925781 167.183594 C 323.445312 167.183594 327.925781 171.660156 327.925781 177.183594 "/>
<path style="fill-rule:nonzero;fill:rgb(100%,0%,0%);fill-opacity:1;stroke-width:1;stroke-linecap:butt;stroke-linejoin:miter;stroke:rgb(0%,0%,0%);stroke-opacity:1;stroke-miterlimit:10;" d="M 420.246094 442.605469 C 420.246094 448.128906 415.769531 452.605469 410.246094 452.605469 C 404.726562 452.605469 400.246094 448.128906 400.246094 442.605469 C 400.246094 437.085938 404.726562 432.605469 410.246094 432.605469 C 415.769531 432.605469 420.246094 437.085938 420.246094 442.605469 "/>
<path style="fill-rule:nonzero;fill:rgb(100%,0%,0%);fill-opacity:1;stroke-width:1;stroke-linecap:butt;stroke-linejoin:miter;stroke:rgb(0%,0%,0%);stroke-opacity:1;stroke-miterlimit:10;" d="M 162.441406 482.90625 C 162.441406 488.429688 157.964844 492.90625 152.441406 492.90625 C 146.921875 492.90625 142.441406 488.429688 142.441406 482.90625 C 142.441406 477.382812 146.921875 472.90625 152.441406 472.90625 C 157.964844 472.90625 162.441406 477.382812 162.441406 482.90625 "/>
<path style="fill-rule:nonzero;fill:rgb(100%,0%,0%);fill-opacity:1;stroke-width:1;stroke-linecap:butt;stroke-linejoin:miter;stroke:rgb(0%,0%,0%);stroke-opacity:1;stroke-miterlimit:10;" d="M 247.773438 466.710938 C 247.773438 472.234375 243.292969 476.710938 237.773438 476.710938 C 232.25 476.710938 227.773438 472.234375 227.773438 466.710938 C 227.773438 461.1875 232.25 456.710938 237.773438 456.710938 C 243.292969 456.710938 247.773438 461.1875 247.773438 466.710938 "/>
<path style="fill-rule:nonzero;fill:rgb(100%,0%,0%);fill-opacity:1;stroke-width:1;stroke-linecap:butt;stroke-linejoin:miter;stroke:rgb(0%,0%,0%);stroke-opacity:1;stroke-miterlimit:10;" d="M 228.425781 284.207031 C 228.425781 289.730469 223.949219 294.207031 218.425781 294.207031 C 212.902344 294.207031 208.425781 289.730469 208.425781 284.207031 C 208.425781 278.6875 212.902344 274.207031 218.425781 274.207031 C 223.949219 274.207031 228.425781 278.6875 228.425781 284.207031 "/>
<path style="fill-rule:nonzero;fill:rgb(100%,0%,0%);fill-opacity:1;stroke-width:1;stroke-linecap:butt;stroke-linejoin:miter;stroke:rgb(0%,0%,0%);stroke-opacity:1;stroke-miterlimit:10;" d="M 151.683594 59.878906 C 151.683594 65.402344 147.207031 69.878906 141.683594 69.878906 C 136.160156 69.878906 131.683594 65.402344 131.683594 59.878906 C 131.683594 54.355469 136.160156 49.878906 141.683594 49.878906 C 147.207031 49.878906 151.683594 54.355469 151.683594 59.878906 "/>
<path style="fill-rule:nonzero;fill:rgb(100%,0%,0%);fill-opacity:1;stroke-width:1;stroke-linecap:butt;stroke-linejoin:miter;stroke:rgb(0%,0%,0%);stroke-opacity:1;stroke-miterlimit:10;" d="M 53.121094 116.265625 C 53.121094 121.789062 48.644531 126.265625 43.121094 126.265625 C 37.597656 126.265625 33.121094 121.789062 33.121094 116.265625 C 33.121094 110.742188 37.597656 106.265625 43.121094 106.265625 C 48.644531 106.265625 53.121094 110.742188 53.121094 116.265625 "/>
<path style="fill-rule:nonzero;fill:rgb(100%,0%,0%);fill-opacity:1;stroke-width:1;stroke-linecap:butt;stroke-linejoin:miter;stroke:rgb(0%,0%,0%);stroke-opacity:1;stroke-miterlimit:10;" d="M 456.78125 580 C 456.78125 585.523438 452.300781 590 446.78125 590 C 441.257812 590 436.78125 585.523438 436.78125 580 C 436.78125 574.476562 441.257812 570 446.78125 570 C 452.300781 570 456.78125 574.476562 456.78125 580 "/>
<path style="fill-rule:nonzero;fill:rgb(100%,0%,0%);fill-opacity:1;stroke-width:1;stroke-linecap:butt;stroke-linejoin:miter;stroke:rgb(0%,0%,0%);stroke-opacity:1;stroke-miterlimit:10;" d="M 65.617188 407.023438 C 65.617188 412.546875 61.140625 417.023438 55.617188 417.023438 C 50.09375 417.023438 45.617188 412.546875 45.617188 407.023438 C 45.617188 401.5 50.09375 397.023438 55.617188 397.023438 C 61.140625 397.023438 65.617188 401.5 65.617188 407.023438 "/>
<path style="fill-rule:nonzero;fill:rgb(100%,0%,0%);fill-opacity:1;stroke-width:1;stroke-linecap:butt;stroke-linejoin:miter;stroke:rgb(0%,0%,0%);stroke-opacity:1;stroke-miterlimit:10;" d="M 30 153.480469 C 30 159.003906 25.523438 163.480469 20 163.480469 C 14.476562 163.480469 10 159.003906 10 153.480469 C 10 147.957031 14.476562 143.480469 20 143.480469 C 25.523438 143.480469 30 147.957031 30 153.480469 "/>
<path style="fill-rule:nonzero;fill:rgb(100%,0%,0%);fill-opacity:1;stroke-width:1;stroke-linecap:butt;stroke-linejoin:miter;stroke:rgb(0%,0%,0%);stroke-opacity:1;stroke-miterlimit:10;" d="M 132.039062 284.058594 C 132.039062 289.582031 127.5625 294.058594 122.039062 294.058594 C 116.515625 294.058594 112.039062 289.582031 112.039062 284.058594 C 112.039062 278.535156 116.515625 274.058594 122.039062 274.058594 C 127.5625 274.058594 132.039062 278.535156 132.039062 284.058594 "/>
<path style="fill-rule:nonzero;fill:rgb(100%,0%,0%);fill-opacity:1;stroke-width:1;stroke-linecap:butt;stroke-linejoin:miter;stroke:rgb(0%,0%,0%);stroke-opacity:1;stroke-miterlimit:10;" d="M 94.371094 83.664062 C 94.371094 89.1875 89.894531 93.664062 84.371094 93.664062 C 78.847656 93.664062 74.371094 89.1875 74.371094 83.664062 C 74.371094 78.140625 78.847656 73.664062 84.371094 73.664062 C 89.894531 73.664062 94.371094 78.140625 94.371094 83.664062 "/>
<path style="fill-rule:nonzero;fill:rgb(100%,0%,0%);fill-opacity:1;stroke-width:1;stroke-linecap:butt;stroke-linejoin:miter;stroke:rgb(0%,0%,0%);stroke-opacity:1;stroke-miterlimit:10;" d="M 111.613281 436.167969 C 111.613281 441.691406 107.132812 446.167969 101.613281 446.167969 C 96.089844 446.167969 91.613281 441.691406 91.613281 436.167969 C 91.613281 430.644531 96.089844 426.167969 101.613281 426.167969 C 107.132812 426.167969 111.613281 430.644531 111.613281 436.167969 "/>
<path style="fill-rule:nonzero;fill:rgb(100%,0%,0%);fill-opacity:1;stroke-width:1;stroke-linecap:butt;stroke-linejoin:miter;stroke:rgb(0%,0%,0%);stroke-opacity:1;stroke-miterlimit:10;" d="M 223.453125 54.597656 C 223.453125 60.121094 218.976562 64.597656 213.453125 64.597656 C 207.929688 64.597656 203.453125 60.121094 203.453125 54.597656 C 203.453125 49.078125 207.929688 44.597656 213.453125 44.597656 C 218.976562 44.597656 223.453125 49.078125 223.453125 54.597656 "/>
<path style="fill-rule:nonzero;fill:rgb(100%,0%,0%);fill-opacity:1;stroke-width:1;stroke-linecap:butt;stroke-linejoin:miter;stroke:rgb(0%,0%,0%);stroke-opacity:1;stroke-miterlimit:10;" d="M 424.390625 106.9375 C 424.390625 112.460938 419.914062 116.9375 414.390625 116.9375 C 408.867188 116.9375 404.390625 112.460938 404.390625 106.9375 C 404.390625 101.414062 408.867188 96.9375 414.390625 96.9375 C 419.914062 96.9375 424.390625 101.414062 424.390625 106.9375 "/>
<path style="fill-rule:nonzero;fill:rgb(100%,0%,0%);fill-opacity:1;stroke-width:1;stroke-linecap:butt;stroke-linejoin:miter;stroke:rgb(0%,0%,0%);stroke-opacity:1;stroke-miterlimit:10;" d="M 590 186.261719 C 590 191.785156 585.523438 196.261719 580 196.261719 C 574.476562 196.261719 570 191.785156 570 186.261719 C 570 180.742188 574.476562 176.261719 580 176.261719 C 585.523438 176.261719 590 180.742188 590 186.261719 "/>
<path style="fill-rule:nonzero;fill:rgb(100%,0%,0%);fill-opacity:1;stroke-width:1;stroke-linecap:butt;stroke-linejoin:miter;stroke:rgb(0%,0%,0%);stroke-opacity:1;stroke-miterlimit:10;" d="M 574.101562 228.558594 C 574.101562 234.082031 569.625 238.558594 564.101562 238.558594 C 558.578125 238.558594 554.101562 234.082031 554.101562 228.558594 C 554.101562 223.035156 558.578125 218.558594 564.101562 218.558594 C 569.625 218.558594 574.101562 223.035156 574.101562 228.558594 "/>
<path style="fill-rule:nonzero;fill:rgb(100%,0%,0%);fill-opacity:1;stroke-width:1;stroke-linecap:butt;stroke-linejoin:miter;stroke:rgb(0%,0%,0%);stroke-opacity:1;stroke-miterlimit:10;" d="M 287.011719 20 C 287.011719 25.523438 282.535156 30 277.011719 30 C 271.488281 30 267.011719 25.523438 267.011719 20 C 267.011719 14.476562 271.488281 10 277.011719 10 C 282.535156 10 287.011719 14.476562 287.011719 20 "/>
<path style="fill-rule:nonzero;fill:rgb(100%,0%,0%);fill-opacity:1;stroke-width:1;stroke-linecap:butt;stroke-linejoin:miter;stroke:rgb(0%,0%,0%);stroke-opacity:1;stroke-miterlimit:10;" d="M 439.652344 182.375 C 439.652344 187.898438 435.171875 192.375 429.652344 192.375 C 424.128906 192.375 419.652344 187.898438 419.652344 182.375 C 419.652344 176.851562 424.128906 172.375 429.652344 172.375 C 435.171875 172.375 439.652344 176.851562 439.652344 182.375 "/>
<path style="fill-rule:nonzero;fill:rgb(100%,0%,0%);fill-opacity:1;stroke-width:1;stroke-linecap:butt;stroke-linejoin:miter;stroke:rgb(0%,0%,0%);stroke-opacity:1;stroke-miterlimit:10;" d="M 387.972656 179.261719 C 387.972656 184.785156 383.496094 189.261719 377.972656 189.261719 C 372.449219 189.261719 367.972656 184.785156 367.972656 179.261719 C 367.972656 173.738281 372.449219 169.261719 377.972656 169.261719 C 383.496094 169.261719 387.972656 173.738281 387.972656 179.261719 "/>
<path style="fill-rule:nonzero;fill:rgb(100%,0%,0%);fill-opacity:1;stroke-width:1;stroke-linecap:butt;stroke-linejoin:miter;stroke:rgb(0%,0%,0%);stroke-opacity:1;stroke-miterlimit:10;" d="M 341.332031 68.203125 C 341.332031 73.726562 336.855469 78.203125 331.332031 78.203125 C 325.808594 78.203125 321.332031 73.726562 321.332031 68.203125 C 321.332031 62.683594 325.808594 58.203125 331.332031 58.203125 C 336.855469 58.203125 341.332031 62.683594 341.332031 68.203125 "/>
<path style="fill-rule:nonzero;fill:rgb(100%,0%,0%);fill-opacity:1;stroke-width:1;stroke-linecap:butt;stroke-linejoin:miter;stroke:rgb(0%,0%,0%);stroke-opacity:1;stroke-miterlimit:10;" d="M 80.6875 230.242188 C 80.6875 235.765625 76.210938 240.242188 70.6875 240.242188 C 65.167969 240.242188 60.6875 235.765625 60.6875 230.242188 C 60.6875 224.71875 65.167969 220.242188 70.6875 220.242188 C 76.210938 220.242188 80.6875 224.71875 80.6875 230.242188 "/>
<path style="fill-rule:nonzero;fill:rgb(100%,0%,0%);fill-opacity:1;stroke-width:1;stroke-linecap:butt;stroke-linejoin:miter;stroke:rgb(0%,0%,0%);stroke-opacity:1;stroke-miterlimit:10;" d="M 387.347656 251.425781 C 387.347656 256.949219 382.871094 261.425781 377.347656 261.425781 C 371.824219 261.425781 367.347656 256.949219 367.347656 251.425781 C 367.347656 245.902344 371.824219 241.425781 377.347656 241.425781 C 382.871094 241.425781 387.347656 245.902344 387.347656 251.425781 "/>
<path style="fill-rule:nonzero;fill:rgb(100%,0%,0%);fill-opacity:1;stroke-width:1;stroke-linecap:butt;stroke-linejoin:miter;stroke:rgb(0%,0%,0%);stroke-opacity:1;stroke-miterlimit:10;" d="M 201.828125 162.417969 C 201.828125 167.9375 197.351562 172.417969 191.828125 172.417969 C 186.304688 172.417969 181.828125 167.9375 181.828125 162.417969 C 181.828125 156.894531 186.304688 152.417969 191.828125 152.417969 C 197.351562 152.417969 201.828125 156.894531 201.828125 162.417969 "/>
<path style="fill-rule:nonzero;fill:rgb(100%,0%,0%);fill-opacity:1;stroke-width:1;stroke-linecap:butt;stroke-linejoin:miter;stroke:rgb(0%,0%,0%);stroke-opacity:1;stroke-miterlimit:10;" d="M 240.488281 155.40625 C 240.488281 160.929688 236.011719 165.40625 230.488281 165.40625 C 224.964844 165.40625 220.488281 160.929688 220.488281 155.40625 C 220.488281 149.882812 224.964844 145.40625 230.488281 145.40625 C 236.011719 145.40625 240.488281 149.882812 240.488281 155.40625 "/>
</g>
</svg>
